<svg width="330" height="41" viewBox="0 0 330 41" fill="none" xmlns="http://www.w3.org/2000/svg">
<path d="M17.056 5.34402C19.168 5.34402 20.896 5.66402 22.24 6.30402C23.616 6.91202 24.832 7.63202 25.888 8.46402C26.528 8.94402 27.008 9.00802 27.328 8.65602C27.68 8.27202 27.92 7.39202 28.048 6.01602H29.152C29.088 7.26402 29.04 8.78402 29.008 10.576C28.976 12.336 28.96 14.688 28.96 17.632H27.856C27.696 16.16 27.488 14.912 27.232 13.888C26.976 12.832 26.624 11.904 26.176 11.104C25.728 10.304 25.088 9.58402 24.256 8.94402C23.456 8.14402 22.528 7.55202 21.472 7.16802C20.416 6.78402 19.312 6.59202 18.16 6.59202C16.432 6.59202 14.96 7.05602 13.744 7.98402C12.528 8.88002 11.536 10.112 10.768 11.68C10.032 13.248 9.48797 15.024 9.13597 17.008C8.78397 18.96 8.60797 20.992 8.60797 23.104C8.60797 25.248 8.78397 27.312 9.13597 29.296C9.51997 31.248 10.096 32.992 10.864 34.528C11.664 36.064 12.688 37.28 13.936 38.176C15.184 39.072 16.656 39.52 18.352 39.52C19.408 39.52 20.464 39.328 21.52 38.944C22.608 38.528 23.536 37.936 24.304 37.168C25.552 36.208 26.4 35.024 26.848 33.616C27.296 32.176 27.632 30.272 27.856 27.904H28.96C28.96 30.944 28.976 33.408 29.008 35.296C29.04 37.152 29.088 38.72 29.152 40H28.048C27.92 38.624 27.696 37.76 27.376 37.408C27.088 37.056 26.592 37.104 25.888 37.552C24.704 38.384 23.44 39.12 22.096 39.76C20.784 40.368 19.088 40.672 17.008 40.672C13.616 40.672 10.64 39.984 8.07997 38.608C5.55197 37.232 3.58397 35.248 2.17597 32.656C0.767965 30.064 0.0639648 26.944 0.0639648 23.296C0.0639648 19.712 0.783965 16.576 2.22397 13.888C3.69597 11.2 5.69597 9.10402 8.22397 7.60002C10.784 6.09602 13.728 5.34402 17.056 5.34402Z" fill="#1B1B1B"/>
<path d="M39.6197 40.336C38.1797 40.336 36.9797 40.064 36.0197 39.52C35.0597 38.976 34.3557 38.256 33.9077 37.36C33.4597 36.432 33.2357 35.424 33.2357 34.336C33.2357 32.96 33.5397 31.84 34.1477 30.976C34.7877 30.112 35.6037 29.408 36.5957 28.864C37.5877 28.32 38.6277 27.872 39.7157 27.52C40.8357 27.168 41.8917 26.832 42.8837 26.512C43.9077 26.16 44.7237 25.76 45.3317 25.312C45.9717 24.832 46.2917 24.224 46.2917 23.488V19.744C46.2917 18.912 46.1477 18.176 45.8597 17.536C45.6037 16.864 45.1877 16.352 44.6117 16C44.0677 15.648 43.3477 15.472 42.4517 15.472C41.8117 15.472 41.1717 15.568 40.5317 15.76C39.8917 15.92 39.3637 16.208 38.9477 16.624C39.8437 16.944 40.5317 17.44 41.0117 18.112C41.5237 18.752 41.7797 19.488 41.7797 20.32C41.7797 21.408 41.3957 22.272 40.6277 22.912C39.8917 23.552 39.0117 23.872 37.9877 23.872C36.8357 23.872 35.9557 23.52 35.3477 22.816C34.7717 22.08 34.4837 21.2 34.4837 20.176C34.4837 19.248 34.7077 18.48 35.1557 17.872C35.6357 17.264 36.2917 16.688 37.1237 16.144C38.0197 15.632 39.0917 15.232 40.3397 14.944C41.6197 14.656 42.9957 14.512 44.4677 14.512C45.9397 14.512 47.2677 14.672 48.4517 14.992C49.6357 15.28 50.6277 15.824 51.4277 16.624C52.1637 17.36 52.6437 18.272 52.8677 19.36C53.0917 20.416 53.2037 21.76 53.2037 23.392V36.448C53.2037 37.248 53.2837 37.808 53.4437 38.128C53.6037 38.416 53.8757 38.56 54.2597 38.56C54.5477 38.56 54.8197 38.48 55.0757 38.32C55.3637 38.16 55.6677 37.968 55.9877 37.744L56.4677 38.56C55.7957 39.136 55.0117 39.584 54.1157 39.904C53.2517 40.192 52.2757 40.336 51.1877 40.336C50.0037 40.336 49.0597 40.176 48.3557 39.856C47.6517 39.504 47.1397 39.04 46.8197 38.464C46.5317 37.888 46.3877 37.216 46.3877 36.448C45.6197 37.664 44.6917 38.624 43.6037 39.328C42.5157 40 41.1877 40.336 39.6197 40.336ZM43.0277 37.264C43.6677 37.264 44.2437 37.12 44.7557 36.832C45.2997 36.512 45.8117 36 46.2917 35.296V25.456C46.0037 25.936 45.6037 26.368 45.0917 26.752C44.5797 27.136 44.0357 27.536 43.4597 27.952C42.8837 28.336 42.3237 28.768 41.7797 29.248C41.2677 29.728 40.8517 30.32 40.5317 31.024C40.2117 31.728 40.0517 32.576 40.0517 33.568C40.0517 34.816 40.3237 35.744 40.8677 36.352C41.4117 36.96 42.1317 37.264 43.0277 37.264Z" fill="#1B1B1B"/>
<path d="M74.3515 14.512C75.3755 14.512 76.2075 14.736 76.8475 15.184C77.4875 15.6 77.9515 16.144 78.2395 16.816C78.5595 17.488 78.7195 18.192 78.7195 18.928C78.7195 20.112 78.3675 21.088 77.6635 21.856C76.9915 22.592 76.0955 22.96 74.9755 22.96C73.8555 22.96 72.9755 22.688 72.3355 22.144C71.7275 21.568 71.4235 20.816 71.4235 19.888C71.4235 18.992 71.6155 18.256 71.9995 17.68C72.4155 17.072 72.9275 16.56 73.5355 16.144C73.0875 16.016 72.6395 16.032 72.1915 16.192C71.5835 16.288 71.0075 16.544 70.4635 16.96C69.9195 17.344 69.4555 17.84 69.0715 18.448C68.6875 19.024 68.3835 19.664 68.1595 20.368C67.9355 21.04 67.8235 21.696 67.8235 22.336V35.056C67.8235 36.592 68.1915 37.632 68.9275 38.176C69.6955 38.72 70.8315 38.992 72.3355 38.992V40C71.5995 39.968 70.5275 39.936 69.1195 39.904C67.7115 39.84 66.2395 39.808 64.7035 39.808C63.4235 39.808 62.1275 39.84 60.8155 39.904C59.5035 39.936 58.5115 39.968 57.8395 40V38.992C58.9595 38.992 59.7435 38.752 60.1915 38.272C60.6715 37.792 60.9115 36.88 60.9115 35.536V20.416C60.9115 18.976 60.6875 17.92 60.2395 17.248C59.8235 16.544 59.0235 16.192 57.8395 16.192V15.184C58.8635 15.28 59.8555 15.328 60.8155 15.328C62.1595 15.328 63.4075 15.28 64.5595 15.184C65.7435 15.056 66.8315 14.88 67.8235 14.656V19.12C68.2075 18.256 68.7195 17.472 69.3595 16.768C69.9995 16.064 70.7355 15.52 71.5675 15.136C72.3995 14.72 73.3275 14.512 74.3515 14.512Z" fill="#1B1B1B"/>
<path d="M88.819 2.41602V35.536C88.819 36.88 89.043 37.792 89.491 38.272C89.971 38.752 90.771 38.992 91.891 38.992V40C91.283 39.968 90.371 39.936 89.155 39.904C87.939 39.84 86.707 39.808 85.459 39.808C84.211 39.808 82.947 39.84 81.667 39.904C80.419 39.936 79.475 39.968 78.835 40V38.992C79.955 38.992 80.739 38.752 81.187 38.272C81.667 37.792 81.907 36.88 81.907 35.536V8.17602C81.907 6.73602 81.683 5.68002 81.235 5.00802C80.819 4.30402 80.019 3.95202 78.835 3.95202V2.94402C79.859 3.04002 80.851 3.08802 81.811 3.08802C83.123 3.08802 84.371 3.04002 85.555 2.94402C86.739 2.81602 87.827 2.64002 88.819 2.41602Z" fill="#1B1B1B"/>
<path d="M105.848 14.512C108.184 14.512 110.232 14.944 111.992 15.808C113.752 16.672 115.128 18.064 116.12 19.984C117.112 21.904 117.608 24.448 117.608 27.616C117.608 30.784 117.112 33.328 116.12 35.248C115.128 37.136 113.752 38.512 111.992 39.376C110.232 40.24 108.184 40.672 105.848 40.672C103.576 40.672 101.544 40.24 99.7525 39.376C97.9925 38.512 96.6005 37.136 95.5765 35.248C94.5845 33.328 94.0885 30.784 94.0885 27.616C94.0885 24.448 94.5845 21.904 95.5765 19.984C96.6005 18.064 97.9925 16.672 99.7525 15.808C101.544 14.944 103.576 14.512 105.848 14.512ZM105.848 15.472C104.568 15.472 103.496 16.432 102.632 18.352C101.768 20.24 101.336 23.328 101.336 27.616C101.336 31.904 101.768 34.992 102.632 36.88C103.496 38.768 104.568 39.712 105.848 39.712C107.16 39.712 108.232 38.768 109.064 36.88C109.928 34.992 110.36 31.904 110.36 27.616C110.36 23.328 109.928 20.24 109.064 18.352C108.232 16.432 107.16 15.472 105.848 15.472Z" fill="#1B1B1B"/>
<path d="M130.109 14.512C131.453 14.512 132.621 14.688 133.613 15.04C134.637 15.36 135.373 15.68 135.821 16C136.909 16.736 137.581 16.256 137.837 14.56H138.845C138.781 15.456 138.733 16.56 138.701 17.872C138.669 19.152 138.653 20.864 138.653 23.008H137.645C137.485 21.824 137.181 20.656 136.733 19.504C136.285 18.352 135.629 17.408 134.765 16.672C133.933 15.936 132.845 15.568 131.501 15.568C130.573 15.568 129.789 15.84 129.149 16.384C128.509 16.896 128.189 17.648 128.189 18.64C128.189 19.6 128.477 20.448 129.053 21.184C129.629 21.888 130.365 22.576 131.261 23.248C132.189 23.888 133.149 24.576 134.141 25.312C135.197 26.112 136.157 26.912 137.021 27.712C137.885 28.48 138.573 29.328 139.085 30.256C139.597 31.184 139.853 32.288 139.853 33.568C139.853 35.008 139.437 36.272 138.605 37.36C137.773 38.416 136.669 39.232 135.293 39.808C133.949 40.384 132.445 40.672 130.781 40.672C129.821 40.672 128.957 40.576 128.189 40.384C127.453 40.192 126.813 39.952 126.269 39.664C125.853 39.472 125.453 39.296 125.069 39.136C124.717 38.944 124.381 38.784 124.061 38.656C123.741 38.56 123.453 38.672 123.197 38.992C122.973 39.312 122.797 39.76 122.669 40.336H121.661C121.725 39.312 121.773 38.064 121.805 36.592C121.837 35.12 121.853 33.168 121.853 30.736H122.861C123.053 32.464 123.405 34 123.917 35.344C124.429 36.656 125.117 37.696 125.981 38.464C126.877 39.2 127.997 39.568 129.341 39.568C129.885 39.568 130.413 39.456 130.925 39.232C131.437 39.008 131.853 38.64 132.173 38.128C132.525 37.616 132.701 36.96 132.701 36.16C132.701 34.752 132.237 33.584 131.309 32.656C130.413 31.728 129.261 30.72 127.853 29.632C126.829 28.8 125.853 27.984 124.925 27.184C124.029 26.352 123.293 25.456 122.717 24.496C122.141 23.504 121.853 22.384 121.853 21.136C121.853 19.696 122.237 18.48 123.005 17.488C123.773 16.496 124.781 15.76 126.029 15.28C127.309 14.768 128.669 14.512 130.109 14.512Z" fill="#1B1B1B"/>
<path d="M183.544 6.01602V6.97602C182.84 7.23202 182.088 7.79202 181.288 8.65602C180.52 9.52002 179.8 10.864 179.128 12.688L169 40.096C168.744 40.064 168.472 40.048 168.184 40.048C167.896 40.048 167.608 40.048 167.32 40.048C167.064 40.048 166.792 40.048 166.504 40.048C166.216 40.048 165.944 40.064 165.688 40.096L153.448 10.048C153 8.89602 152.504 8.11202 151.96 7.69602C151.416 7.24802 150.904 7.00802 150.424 6.97602V6.01602C151.384 6.04802 152.504 6.08002 153.784 6.11202C155.096 6.14402 156.408 6.16002 157.72 6.16002C159.192 6.16002 160.568 6.14402 161.848 6.11202C163.16 6.08002 164.216 6.04802 165.016 6.01602V6.97602C163.992 7.00802 163.192 7.13602 162.616 7.36002C162.04 7.55202 161.72 7.93602 161.656 8.51202C161.592 9.05602 161.784 9.88802 162.232 11.008L170.968 33.232L169.96 34.432L176.584 16.576C177.448 14.176 177.896 12.288 177.928 10.912C177.96 9.53602 177.624 8.54402 176.92 7.93602C176.216 7.32802 175.208 7.00802 173.896 6.97602V6.01602C174.984 6.04802 176.008 6.08002 176.968 6.11202C177.928 6.14402 178.904 6.16002 179.896 6.16002C180.6 6.16002 181.256 6.14402 181.864 6.11202C182.504 6.08002 183.064 6.04802 183.544 6.01602Z" fill="#1B1B1B"/>
<path d="M189.048 2.80002C190.392 2.80002 191.448 3.13602 192.216 3.80802C193.016 4.44802 193.416 5.34402 193.416 6.49602C193.416 7.64802 193.016 8.56002 192.216 9.23202C191.448 9.87202 190.392 10.192 189.048 10.192C187.704 10.192 186.632 9.87202 185.832 9.23202C185.064 8.56002 184.68 7.64802 184.68 6.49602C184.68 5.34402 185.064 4.44802 185.832 3.80802C186.632 3.13602 187.704 2.80002 189.048 2.80002ZM192.792 14.656V35.536C192.792 36.88 193.016 37.792 193.464 38.272C193.944 38.752 194.744 38.992 195.864 38.992V40C195.288 39.968 194.392 39.936 193.176 39.904C191.96 39.84 190.728 39.808 189.48 39.808C188.232 39.808 186.968 39.84 185.688 39.904C184.408 39.936 183.448 39.968 182.808 40V38.992C183.928 38.992 184.712 38.752 185.16 38.272C185.64 37.792 185.88 36.88 185.88 35.536V20.416C185.88 18.976 185.656 17.92 185.208 17.248C184.792 16.544 183.992 16.192 182.808 16.192V15.184C183.832 15.28 184.824 15.328 185.784 15.328C187.128 15.328 188.376 15.28 189.528 15.184C190.712 15.056 191.8 14.88 192.792 14.656Z" fill="#1B1B1B"/>
<path d="M215.805 14.512C217.149 14.512 218.237 14.688 219.069 15.04C219.933 15.36 220.605 15.808 221.085 16.384C221.597 16.992 221.965 17.776 222.189 18.736C222.445 19.696 222.573 20.992 222.573 22.624V35.536C222.573 36.88 222.797 37.792 223.245 38.272C223.725 38.752 224.525 38.992 225.645 38.992V40C225.037 39.968 224.125 39.936 222.909 39.904C221.693 39.84 220.493 39.808 219.309 39.808C218.093 39.808 216.893 39.84 215.709 39.904C214.557 39.936 213.677 39.968 213.069 40V38.992C214.029 38.992 214.701 38.752 215.085 38.272C215.469 37.792 215.661 36.88 215.661 35.536V20.608C215.661 19.808 215.581 19.12 215.421 18.544C215.261 17.936 214.973 17.472 214.557 17.152C214.141 16.8 213.517 16.624 212.685 16.624C211.821 16.624 211.021 16.864 210.285 17.344C209.581 17.824 209.005 18.496 208.557 19.36C208.141 20.192 207.933 21.136 207.933 22.192V35.536C207.933 36.88 208.125 37.792 208.509 38.272C208.925 38.752 209.597 38.992 210.525 38.992V40C209.949 39.968 209.101 39.936 207.981 39.904C206.893 39.84 205.757 39.808 204.573 39.808C203.357 39.808 202.109 39.84 200.829 39.904C199.549 39.936 198.589 39.968 197.949 40V38.992C199.069 38.992 199.853 38.752 200.301 38.272C200.781 37.792 201.021 36.88 201.021 35.536V20.416C201.021 18.976 200.797 17.92 200.349 17.248C199.933 16.544 199.133 16.192 197.949 16.192V15.184C198.973 15.28 199.965 15.328 200.925 15.328C202.269 15.328 203.517 15.28 204.669 15.184C205.853 15.056 206.941 14.88 207.933 14.656V18.976C208.733 17.344 209.821 16.192 211.197 15.52C212.573 14.848 214.109 14.512 215.805 14.512Z" fill="#1B1B1B"/>
<path d="M237.417 14.656V35.536C237.417 36.88 237.641 37.792 238.089 38.272C238.569 38.752 239.369 38.992 240.489 38.992V40C239.913 39.968 239.017 39.936 237.801 39.904C236.585 39.84 235.353 39.808 234.105 39.808C232.857 39.808 231.593 39.84 230.313 39.904C229.033 39.936 228.073 39.968 227.433 40V38.992C228.553 38.992 229.337 38.752 229.785 38.272C230.265 37.792 230.505 36.88 230.505 35.536V20.416C230.505 18.976 230.281 17.92 229.833 17.248C229.417 16.544 228.617 16.192 227.433 16.192V15.184C228.457 15.28 229.449 15.328 230.409 15.328C231.753 15.328 233.001 15.28 234.153 15.184C235.337 15.056 236.425 14.88 237.417 14.656ZM239.049 0.784018C239.593 1.20002 239.881 1.77602 239.913 2.51202C239.945 3.24802 239.705 3.93602 239.193 4.57602C238.681 5.21602 238.057 5.79202 237.321 6.30402C236.585 6.81602 235.705 7.44002 234.681 8.17602C233.689 8.91202 232.489 9.93602 231.081 11.248L230.553 10.816C231.513 9.08802 232.217 7.64802 232.665 6.49602C233.113 5.31202 233.497 4.30402 233.817 3.47202C234.137 2.64002 234.569 1.92002 235.113 1.31202C235.593 0.672017 236.217 0.304017 236.985 0.208017C237.785 0.0800165 238.473 0.272017 239.049 0.784018Z" fill="#1B1B1B"/>
<path d="M255.054 14.512C256.302 14.512 257.438 14.656 258.462 14.944C259.518 15.2 260.382 15.536 261.054 15.952C261.886 16.464 262.526 17.104 262.974 17.872C263.454 18.608 263.694 19.472 263.694 20.464C263.694 21.584 263.342 22.512 262.638 23.248C261.934 23.952 261.022 24.304 259.902 24.304C258.782 24.304 257.886 23.984 257.214 23.344C256.542 22.704 256.206 21.84 256.206 20.752C256.206 19.728 256.526 18.88 257.166 18.208C257.806 17.504 258.542 17.04 259.374 16.816C259.118 16.496 258.734 16.224 258.222 16C257.71 15.776 257.134 15.664 256.494 15.664C255.502 15.664 254.622 15.952 253.854 16.528C253.118 17.104 252.494 17.904 251.982 18.928C251.47 19.952 251.07 21.152 250.782 22.528C250.526 23.904 250.398 25.408 250.398 27.04C250.398 29.504 250.702 31.44 251.31 32.848C251.95 34.256 252.75 35.248 253.71 35.824C254.702 36.4 255.726 36.688 256.782 36.688C257.39 36.688 258.046 36.592 258.75 36.4C259.486 36.208 260.222 35.824 260.958 35.248C261.726 34.672 262.43 33.856 263.07 32.8L263.886 33.088C263.534 34.272 262.958 35.456 262.158 36.64C261.358 37.824 260.318 38.8 259.038 39.568C257.758 40.304 256.19 40.672 254.334 40.672C252.254 40.672 250.366 40.224 248.67 39.328C247.006 38.4 245.662 36.992 244.638 35.104C243.646 33.184 243.15 30.72 243.15 27.712C243.15 24.832 243.662 22.416 244.686 20.464C245.742 18.48 247.166 16.992 248.958 16C250.75 15.008 252.782 14.512 255.054 14.512Z" fill="#1B1B1B"/>
<path d="M272.626 2.80002C273.97 2.80002 275.026 3.13602 275.794 3.80802C276.594 4.44802 276.994 5.34402 276.994 6.49602C276.994 7.64802 276.594 8.56002 275.794 9.23202C275.026 9.87202 273.97 10.192 272.626 10.192C271.282 10.192 270.21 9.87202 269.41 9.23202C268.642 8.56002 268.258 7.64802 268.258 6.49602C268.258 5.34402 268.642 4.44802 269.41 3.80802C270.21 3.13602 271.282 2.80002 272.626 2.80002ZM276.37 14.656V35.536C276.37 36.88 276.594 37.792 277.042 38.272C277.522 38.752 278.322 38.992 279.442 38.992V40C278.866 39.968 277.97 39.936 276.754 39.904C275.538 39.84 274.306 39.808 273.058 39.808C271.81 39.808 270.546 39.84 269.266 39.904C267.986 39.936 267.026 39.968 266.386 40V38.992C267.506 38.992 268.29 38.752 268.738 38.272C269.218 37.792 269.458 36.88 269.458 35.536V20.416C269.458 18.976 269.234 17.92 268.786 17.248C268.37 16.544 267.57 16.192 266.386 16.192V15.184C267.41 15.28 268.402 15.328 269.362 15.328C270.706 15.328 271.954 15.28 273.106 15.184C274.29 15.056 275.378 14.88 276.37 14.656Z" fill="#1B1B1B"/>
<path d="M305.431 14.656V34.768C305.431 36.208 305.655 37.28 306.103 37.984C306.551 38.656 307.351 38.992 308.503 38.992V40C307.511 39.904 306.519 39.856 305.527 39.856C304.183 39.856 302.935 39.904 301.783 40C300.631 40.096 299.543 40.272 298.519 40.528V36.208C297.751 37.808 296.679 38.96 295.303 39.664C293.959 40.336 292.455 40.672 290.791 40.672C289.447 40.672 288.359 40.496 287.527 40.144C286.695 39.792 286.039 39.344 285.559 38.8C285.015 38.192 284.631 37.392 284.407 36.4C284.183 35.408 284.071 34.128 284.071 32.56V20.416C284.071 18.976 283.847 17.92 283.399 17.248C282.983 16.544 282.183 16.192 280.999 16.192V15.184C282.023 15.28 283.015 15.328 283.975 15.328C285.319 15.328 286.567 15.28 287.719 15.184C288.903 15.056 289.991 14.88 290.983 14.656V34.528C290.983 35.328 291.047 36.032 291.175 36.64C291.335 37.248 291.623 37.728 292.039 38.08C292.455 38.4 293.063 38.56 293.863 38.56C294.727 38.56 295.495 38.32 296.167 37.84C296.871 37.36 297.431 36.704 297.847 35.872C298.295 35.008 298.519 34.048 298.519 32.992V20.416C298.519 18.976 298.295 17.92 297.847 17.248C297.431 16.544 296.631 16.192 295.447 16.192V15.184C296.471 15.28 297.463 15.328 298.423 15.328C299.767 15.328 301.015 15.28 302.167 15.184C303.351 15.056 304.439 14.88 305.431 14.656Z" fill="#1B1B1B"/>
<path d="M320.14 14.512C321.484 14.512 322.652 14.688 323.644 15.04C324.668 15.36 325.404 15.68 325.852 16C326.94 16.736 327.612 16.256 327.868 14.56H328.876C328.812 15.456 328.764 16.56 328.732 17.872C328.7 19.152 328.684 20.864 328.684 23.008H327.676C327.516 21.824 327.212 20.656 326.764 19.504C326.316 18.352 325.66 17.408 324.796 16.672C323.964 15.936 322.876 15.568 321.532 15.568C320.604 15.568 319.82 15.84 319.18 16.384C318.54 16.896 318.22 17.648 318.22 18.64C318.22 19.6 318.508 20.448 319.084 21.184C319.66 21.888 320.396 22.576 321.292 23.248C322.22 23.888 323.18 24.576 324.172 25.312C325.228 26.112 326.188 26.912 327.052 27.712C327.916 28.48 328.604 29.328 329.116 30.256C329.628 31.184 329.884 32.288 329.884 33.568C329.884 35.008 329.468 36.272 328.636 37.36C327.804 38.416 326.7 39.232 325.324 39.808C323.98 40.384 322.476 40.672 320.812 40.672C319.852 40.672 318.988 40.576 318.22 40.384C317.484 40.192 316.844 39.952 316.3 39.664C315.884 39.472 315.484 39.296 315.1 39.136C314.748 38.944 314.412 38.784 314.092 38.656C313.772 38.56 313.484 38.672 313.228 38.992C313.004 39.312 312.828 39.76 312.7 40.336H311.692C311.756 39.312 311.804 38.064 311.836 36.592C311.868 35.12 311.884 33.168 311.884 30.736H312.892C313.084 32.464 313.436 34 313.948 35.344C314.46 36.656 315.148 37.696 316.012 38.464C316.908 39.2 318.028 39.568 319.372 39.568C319.916 39.568 320.444 39.456 320.956 39.232C321.468 39.008 321.884 38.64 322.204 38.128C322.556 37.616 322.732 36.96 322.732 36.16C322.732 34.752 322.268 33.584 321.34 32.656C320.444 31.728 319.292 30.72 317.884 29.632C316.86 28.8 315.884 27.984 314.956 27.184C314.06 26.352 313.324 25.456 312.748 24.496C312.172 23.504 311.884 22.384 311.884 21.136C311.884 19.696 312.268 18.48 313.036 17.488C313.804 16.496 314.812 15.76 316.06 15.28C317.34 14.768 318.7 14.512 320.14 14.512Z" fill="#1B1B1B"/>
</svg>
