<svg width="20" height="20" viewBox="0 0 20 20" fill="none" xmlns="http://www.w3.org/2000/svg">
<path d="M11.6668 8.25004V6.83337C12.1252 6.63893 12.5939 6.4931 13.0731 6.39587C13.5522 6.29865 14.0557 6.25004 14.5835 6.25004C14.9446 6.25004 15.2988 6.27782 15.646 6.33337C15.9932 6.38893 16.3335 6.45837 16.6668 6.54171V7.87504C16.3335 7.75004 15.9967 7.65629 15.6564 7.59379C15.3161 7.53129 14.9585 7.50004 14.5835 7.50004C14.0557 7.50004 13.5488 7.56601 13.0627 7.69796C12.5766 7.8299 12.1113 8.01393 11.6668 8.25004ZM11.6668 12.8334V11.4167C12.1252 11.2223 12.5939 11.0764 13.0731 10.9792C13.5522 10.882 14.0557 10.8334 14.5835 10.8334C14.9446 10.8334 15.2988 10.8612 15.646 10.9167C15.9932 10.9723 16.3335 11.0417 16.6668 11.125V12.4584C16.3335 12.3334 15.9967 12.2396 15.6564 12.1771C15.3161 12.1146 14.9585 12.0834 14.5835 12.0834C14.0557 12.0834 13.5488 12.1459 13.0627 12.2709C12.5766 12.3959 12.1113 12.5834 11.6668 12.8334ZM11.6668 10.5417V9.12504C12.1252 8.9306 12.5939 8.78476 13.0731 8.68754C13.5522 8.59032 14.0557 8.54171 14.5835 8.54171C14.9446 8.54171 15.2988 8.56948 15.646 8.62504C15.9932 8.6806 16.3335 8.75004 16.6668 8.83337V10.1667C16.3335 10.0417 15.9967 9.94796 15.6564 9.88546C15.3161 9.82296 14.9585 9.79171 14.5835 9.79171C14.0557 9.79171 13.5488 9.85768 13.0627 9.98962C12.5766 10.1216 12.1113 10.3056 11.6668 10.5417ZM5.41683 13.3334C6.06961 13.3334 6.70502 13.4063 7.32308 13.5521C7.94114 13.698 8.55572 13.9167 9.16683 14.2084V6.00004C8.59739 5.66671 7.99322 5.41671 7.35433 5.25004C6.71544 5.08337 6.06961 5.00004 5.41683 5.00004C4.91683 5.00004 4.4203 5.04865 3.92725 5.14587C3.43419 5.2431 2.9585 5.38893 2.50016 5.58337V13.8334C2.98627 13.6667 3.46891 13.5417 3.94808 13.4584C4.42725 13.375 4.91683 13.3334 5.41683 13.3334ZM10.8335 14.2084C11.4446 13.9167 12.0592 13.698 12.6772 13.5521C13.2953 13.4063 13.9307 13.3334 14.5835 13.3334C15.0835 13.3334 15.5731 13.375 16.0522 13.4584C16.5314 13.5417 17.0141 13.6667 17.5002 13.8334V5.58337C17.0418 5.38893 16.5661 5.2431 16.0731 5.14587C15.58 5.04865 15.0835 5.00004 14.5835 5.00004C13.9307 5.00004 13.2849 5.08337 12.646 5.25004C12.0071 5.41671 11.4029 5.66671 10.8335 6.00004V14.2084ZM10.0002 16.6667C9.3335 16.1389 8.61127 15.7292 7.8335 15.4375C7.05572 15.1459 6.25016 15 5.41683 15C4.8335 15 4.26058 15.0764 3.69808 15.2292C3.13558 15.382 2.59739 15.5973 2.0835 15.875C1.79183 16.0278 1.51058 16.0209 1.23975 15.8542C0.968913 15.6875 0.833496 15.4445 0.833496 15.125V5.08337C0.833496 4.9306 0.871691 4.78476 0.948079 4.64587C1.02447 4.50699 1.13905 4.40282 1.29183 4.33337C1.93072 4.00004 2.59739 3.75004 3.29183 3.58337C3.98627 3.41671 4.69461 3.33337 5.41683 3.33337C6.22239 3.33337 7.01058 3.43754 7.78141 3.64587C8.55225 3.85421 9.29183 4.16671 10.0002 4.58337C10.7085 4.16671 11.4481 3.85421 12.2189 3.64587C12.9897 3.43754 13.7779 3.33337 14.5835 3.33337C15.3057 3.33337 16.0141 3.41671 16.7085 3.58337C17.4029 3.75004 18.0696 4.00004 18.7085 4.33337C18.8613 4.40282 18.9759 4.50699 19.0522 4.64587C19.1286 4.78476 19.1668 4.9306 19.1668 5.08337V15.125C19.1668 15.4445 19.0314 15.6875 18.7606 15.8542C18.4897 16.0209 18.2085 16.0278 17.9168 15.875C17.4029 15.5973 16.8647 15.382 16.3022 15.2292C15.7397 15.0764 15.1668 15 14.5835 15C13.7502 15 12.9446 15.1459 12.1668 15.4375C11.3891 15.7292 10.6668 16.1389 10.0002 16.6667Z" fill="url(#paint0_linear_26_300)"/>
<defs>
<linearGradient id="paint0_linear_26_300" x1="10.0002" y1="3.33337" x2="10.0002" y2="16.6667" gradientUnits="userSpaceOnUse">
<stop stop-color="#5934DF"/>
<stop offset="1" stop-color="#804EE4"/>
</linearGradient>
</defs>
</svg>
