<svg width="50" height="51" viewBox="0 0 50 51" fill="none" xmlns="http://www.w3.org/2000/svg">
<path d="M25.1999 12.7C18.1999 12.7 12.3999 18.4 12.3999 25.5C12.3999 32.6 18.0999 38.2999 25.1999 38.2999C32.2999 38.2999 37.9999 32.5 37.9999 25.5C37.9999 18.5 32.1999 12.7 25.1999 12.7ZM25.1999 33.7C20.6999 33.7 16.9999 30 16.9999 25.5C16.9999 21 20.6999 17.2999 25.1999 17.2999C29.6999 17.2999 33.3999 21 33.3999 25.5C33.3999 30 29.6999 33.7 25.1999 33.7Z" fill="url(#paint0_linear_65_17)"/>
<path d="M38.4999 15.3C40.1015 15.3 41.3999 14.0016 41.3999 12.4C41.3999 10.7984 40.1015 9.5 38.4999 9.5C36.8982 9.5 35.5999 10.7984 35.5999 12.4C35.5999 14.0016 36.8982 15.3 38.4999 15.3Z" fill="url(#paint1_linear_65_17)"/>
<path d="M45.9999 4.90005C43.3999 2.20005 39.6999 0.800049 35.4999 0.800049H14.8999C6.1999 0.800049 0.399902 6.60005 0.399902 15.3V35.8C0.399902 40.1 1.7999 43.8 4.5999 46.5C7.2999 49.1 10.8999 50.4001 14.9999 50.4001H35.3999C39.6999 50.4001 43.2999 49 45.8999 46.5C48.5999 43.9 49.9999 40.2001 49.9999 35.9001V15.3C49.9999 11.1 48.5999 7.50005 45.9999 4.90005ZM45.5999 35.9001C45.5999 39.0001 44.4999 41.5001 42.6999 43.2001C40.8999 44.9001 38.3999 45.8 35.3999 45.8H14.9999C11.9999 45.8 9.4999 44.9001 7.6999 43.2001C5.8999 41.4001 4.9999 38.9 4.9999 35.8V15.3C4.9999 12.3 5.8999 9.80005 7.6999 8.00005C9.3999 6.30005 11.9999 5.40005 14.9999 5.40005H35.5999C38.5999 5.40005 41.0999 6.30005 42.8999 8.10005C44.5999 9.90005 45.5999 12.4 45.5999 15.3V35.9001Z" fill="url(#paint2_linear_65_17)"/>
<defs>
<linearGradient id="paint0_linear_65_17" x1="25.1999" y1="12.7" x2="25.1999" y2="38.2999" gradientUnits="userSpaceOnUse">
<stop stop-color="#5934DF"/>
<stop offset="1" stop-color="#804EE4"/>
</linearGradient>
<linearGradient id="paint1_linear_65_17" x1="38.4999" y1="9.5" x2="38.4999" y2="15.3" gradientUnits="userSpaceOnUse">
<stop stop-color="#5934DF"/>
<stop offset="1" stop-color="#804EE4"/>
</linearGradient>
<linearGradient id="paint2_linear_65_17" x1="25.1999" y1="0.800049" x2="25.1999" y2="50.4001" gradientUnits="userSpaceOnUse">
<stop stop-color="#5934DF"/>
<stop offset="1" stop-color="#804EE4"/>
</linearGradient>
</defs>
</svg>
